<svg xmlns="http://www.w3.org/2000/svg" width="432" height="432" viewBox="0 0 432 432"><style>.a{fill:#F15D2A;}</style><path d="M20.2 220.4h390.9c0 0 5.2 95.1-76.9 156 0 0-67.2 58.3-172 32.2C162.2 408.7 24.5 374.6 20.2 220.4" fill="#00B1B3"/><path d="M406.1 208.1H25.3c-2.8 0-5-2.3-5-5s2.3-5 5-5h380.8c2.8 0 5 2.3 5 5S408.9 208.1 406.1 208.1z" class="a"/><path d="M403.6 183.7H28.9c-2.3 0-4.1-1.8-4.1-4.1s1.8-4.1 4.1-4.1h374.6c2.3 0 4.1 1.8 4.1 4.1S405.9 183.7 403.6 183.7z" class="a"/><path d="M397.7 161.1H33.3c-1.5 0-2.8-1.2-2.8-2.8s1.2-2.8 2.8-2.8h364.4c1.5 0 2.8 1.2 2.8 2.8S399.2 161.1 397.7 161.1zM389.6 141.9H40.5c-1.5 0-2.8-1.2-2.8-2.8s1.2-2.8 2.8-2.8h349.1c1.5 0 2.8 1.2 2.8 2.8S391.1 141.9 389.6 141.9zM382.4 123.3H47.1c-1.5 0-2.8-1.2-2.8-2.8s1.2-2.8 2.8-2.8h335.3c1.5 0 2.8 1.2 2.8 2.8S383.9 123.3 382.4 123.3zM372.3 106.4H58.5c-1.5 0-2.8-1.2-2.8-2.8s1.2-2.8 2.8-2.8h313.8c1.5 0 2.8 1.2 2.8 2.8S373.8 106.4 372.3 106.4zM358.5 89.9H71.7c-1.5 0-2.8-1.2-2.8-2.8s1.2-2.8 2.8-2.8h286.8c1.5 0 2.8 1.2 2.8 2.8S360 89.9 358.5 89.9zM341.5 75.1H88.6c-1.5 0-2.8-1.2-2.8-2.8s1.2-2.8 2.8-2.8h252.8c1.5 0 2.8 1.2 2.8 2.8S343 75.1 341.5 75.1zM325.4 59.9H105.6c-1.5 0-2.8-1.2-2.8-2.8s1.2-2.8 2.8-2.8h219.8c1.5 0 2.8 1.2 2.8 2.8S327 59.9 325.4 59.9zM300.6 45.2H129.5c-1.5 0-2.8-1.2-2.8-2.8s1.2-2.8 2.8-2.8h171.1c1.5 0 2.8 1.2 2.8 2.8S302.1 45.2 300.6 45.2zM255.3 29.8H178c-1.5 0-2.8-1.2-2.8-2.8s1.2-2.8 2.8-2.8h77.4c1.5 0 2.8 1.2 2.8 2.8S256.8 29.8 255.3 29.8z" class="a"/></svg>