<svg xmlns="http://www.w3.org/2000/svg" width="35" height="35" viewBox="0 0 40 40"><style>.a{fill:#FFF;}</style><path d="M27.4 10.2H12.6c-1.4 0-2.5 1.1-2.5 2.5v14.8c0 1.4 1.1 2.5 2.5 2.5h14.8c1.4 0 2.5-1.1 2.5-2.5V12.6C29.8 11.3 28.7 10.2 27.4 10.2zM20 17.5c2.3 0 2.5 2.5 2.5 2.5s0.1 2.5-2.5 2.5c-2.5 0-2.5-2.5-2.5-2.5S17.7 17.5 20 17.5zM27.4 26.2c0 0.7-0.5 1.2-1.2 1.2H13.8c-0.7 0-1.2-0.6-1.2-1.2V20c0-0.7 0.6-1.2 1.2-1.2h1.4c-0.1 0.4-0.2 0.8-0.2 1.2 0 2.7 2.2 4.9 4.9 4.9 2.7 0 4.9-2.2 4.9-4.9 0-0.4-0.1-0.8-0.2-1.2h1.4c0.7 0 1.2 0.6 1.2 1.2V26.2zM27.4 15.1c0 0.7-0.5 1.2-1.2 1.2h-1.2c-0.7 0-1.2-0.6-1.2-1.2v-1.2c0-0.7 0.6-1.2 1.2-1.2h1.2c0.7 0 1.2 0.6 1.2 1.2V15.1z" class="a"/><path d="M20 0.3C9.1 0.3 0.3 9.1 0.3 20c0 10.9 8.8 19.7 19.7 19.7S39.7 30.9 39.7 20C39.7 9.1 30.9 0.3 20 0.3zM20 38.5C9.8 38.5 1.5 30.2 1.5 20 1.5 9.8 9.8 1.5 20 1.5c10.2 0 18.5 8.3 18.5 18.5C38.5 30.2 30.2 38.5 20 38.5z" class="a"/></svg>