<svg xmlns="http://www.w3.org/2000/svg" width="35" height="35" viewBox="0 0 40 40"><style>.a{fill:#FFF;}</style><path d="M12.2 9.9c-1.4 0-2.3 0.9-2.3 2.2 0 1.2 0.9 2.2 2.2 2.2 1.4 0 2.3-1 2.3-2.2C14.5 10.8 13.6 9.9 12.2 9.9z" class="a"/><path d="M25.1 15.6c-2.3 0-3.7 1.3-4.3 2.2h-0.1l-0.2-1.9h-3.7c0.1 1.2 0.1 2.7 0.1 4.4v9.4h4.3v-8c0-0.4 0-0.8 0.1-1.1 0.3-0.8 1-1.6 2.2-1.6 1.6 0 2.2 1.2 2.2 3v7.7h4.3v-8.2C30.1 17.5 27.9 15.6 25.1 15.6z" class="a"/><rect x="10" y="15.9" width="4.3" height="13.9" class="a"/><path d="M20 0.1C9 0.1 0.1 9 0.1 20 0.1 31 9 39.9 20 39.9c11 0 19.9-8.9 19.9-19.9C39.9 9 31 0.1 20 0.1zM20 38.6C9.7 38.6 1.4 30.3 1.4 20 1.4 9.7 9.7 1.4 20 1.4c10.3 0 18.6 8.3 18.6 18.6C38.6 30.3 30.3 38.6 20 38.6z" class="a"/></svg>