<svg xmlns="http://www.w3.org/2000/svg" width="35" height="35" viewBox="0 0 40 40"><style>.a{fill:#FFF;}</style><path d="M30.4 12.6c-0.9 0.5-1.8 0.9-2.9 1.1 -0.8-0.9-2-1.4-3.3-1.4 -2.5 0-4.5 2-4.5 4.5 0 0.4 0 0.7 0.1 1 -3.8-0.2-7.1-2-9.3-4.7 -0.4 0.7-0.6 1.4-0.6 2.3 0 1.6 0.8 3 2 3.8 -0.7 0-1.4-0.2-2.1-0.6 0 0 0 0 0 0.1 0 2.2 1.6 4 3.6 4.4 -0.4 0.1-0.8 0.2-1.2 0.2 -0.3 0-0.6 0-0.9-0.1 0.6 1.8 2.2 3.1 4.2 3.1 -1.6 1.2-3.5 1.9-5.6 1.9 -0.4 0-0.7 0-1.1-0.1 2 1.3 4.4 2 6.9 2 8.3 0 12.9-6.9 12.9-12.9 0-0.2 0-0.4 0-0.6 0.9-0.6 1.7-1.4 2.3-2.3 -0.8 0.4-1.7 0.6-2.6 0.7C29.4 14.5 30.1 13.6 30.4 12.6z" class="a"/><path d="M20 0.4C9.2 0.4 0.4 9.2 0.4 20c0 10.8 8.8 19.6 19.6 19.6S39.6 30.8 39.6 20C39.6 9.2 30.8 0.4 20 0.4zM20 38.4C9.8 38.4 1.6 30.2 1.6 20 1.6 9.8 9.8 1.6 20 1.6S38.4 9.8 38.4 20C38.4 30.2 30.2 38.4 20 38.4z" class="a"/></svg>