<svg xmlns="http://www.w3.org/2000/svg" width="313" height="313" viewBox="-142.2 -144.5 312.7 312.7"><style>.a{fill:#FFF;}</style><path d="M-93.8 14.1h216c0 0 2.9 52.5-42.5 86.2 0 0-37.1 32.2-95 17.8C-15.4 118.2-91.5 99.3-93.8 14.1" class="a"/><path d="M119.4 7.3H-91c-1.5 0-2.8-1.3-2.8-2.8s1.3-2.8 2.8-2.8h210.4c1.5 0 2.8 1.3 2.8 2.8S120.9 7.3 119.4 7.3z" class="a"/><path d="M118-6.2H-89c-1.3 0-2.3-1-2.3-2.3 0-1.3 1-2.3 2.3-2.3h207c1.3 0 2.3 1 2.3 2.3C120.2-7.1 119.3-6.2 118-6.2z" class="a"/><path d="M114.7-18.6H-86.6c-0.8 0-1.5-0.7-1.5-1.5s0.7-1.5 1.5-1.5h201.3c0.8 0 1.5 0.7 1.5 1.5S115.6-18.6 114.7-18.6zM110.2-29.2H-82.6c-0.8 0-1.5-0.7-1.5-1.5 0-0.9 0.7-1.5 1.5-1.5h192.9c0.8 0 1.5 0.7 1.5 1.5C111.8-29.9 111.1-29.2 110.2-29.2zM106.3-39.5H-79c-0.8 0-1.5-0.7-1.5-1.5s0.7-1.5 1.5-1.5h185.2c0.8 0 1.5 0.7 1.5 1.5S107.1-39.5 106.3-39.5zM100.7-48.9H-72.7c-0.8 0-1.5-0.7-1.5-1.5s0.7-1.5 1.5-1.5h173.4c0.8 0 1.5 0.7 1.5 1.5S101.5-48.9 100.7-48.9zM93.1-58H-65.4c-0.8 0-1.5-0.7-1.5-1.5 0-0.9 0.7-1.5 1.5-1.5H93.1c0.8 0 1.5 0.7 1.5 1.5C94.6-58.6 93.9-58 93.1-58zM83.7-66.2H-56c-0.8 0-1.5-0.7-1.5-1.5 0-0.9 0.7-1.5 1.5-1.5H83.6c0.8 0 1.5 0.7 1.5 1.5C85.2-66.8 84.5-66.2 83.7-66.2zM74.8-74.5H-46.7c-0.8 0-1.5-0.7-1.5-1.5 0-0.9 0.7-1.5 1.5-1.5H74.8c0.8 0 1.5 0.7 1.5 1.5C76.3-75.2 75.7-74.5 74.8-74.5zM61.1-82.7h-94.5c-0.8 0-1.5-0.7-1.5-1.5 0-0.9 0.7-1.5 1.5-1.5h94.5c0.8 0 1.5 0.7 1.5 1.5C62.6-83.3 61.9-82.7 61.1-82.7zM36.1-91.2H-6.7c-0.8 0-1.5-0.7-1.5-1.5s0.7-1.5 1.5-1.5h42.8c0.8 0 1.5 0.7 1.5 1.5S36.9-91.2 36.1-91.2z" class="a"/><path d="M14.2-138.6c-53.7 0-100.9 28.2-127.5 70.6l26.3-6 5.7 13.8c21.9-28.9 56.5-47.6 95.4-47.6C57-107.7 94.7-85 115.9-51l15.9 2.2L139-72C111.9-112.1 66.1-138.6 14.2-138.6z" style="fill:#FFF;opacity:0.8"/><path d="M147.4-58l-7.1 22.7L123-37.7c7 15.1 10.8 32 10.8 49.7 0 65.5-53 118.9-118.3 119.6l-9.7 12 16.6 18.6c79.2-4.2 142.4-70 142.4-150.3C164.7-13.3 158.4-37.1 147.4-58z" style="fill:#FFF;opacity:0.6"/><path d="M0.3 130.8C-59.1 123.9-105.5 73.2-105.5 12c0-21.8 5.8-42.2 16-59.8l-4.9-11.9 -26.9 6.1c-9.6 19.8-15 42.1-15 65.6 0 80.2 63.1 146 142.3 150.3L-10.3 144 0.3 130.8z" style="fill:#FFF;opacity:0.4"/></svg>