<svg xmlns="http://www.w3.org/2000/svg" width="354" height="159" viewBox="0 0 354 159"><style>.a{fill:#FFF;}</style><path d="M216.2 127.2V6.9h-5v120.3c-5.7 1.2-10.1 6.2-10.1 12.3 0 6.9 5.6 12.6 12.6 12.6 6.9 0 12.6-5.6 12.6-12.6C226.3 133.5 222 128.4 216.2 127.2zM213.7 147.1c-4.2 0-7.5-3.4-7.5-7.5s3.4-7.5 7.5-7.5c4.2 0 7.5 3.4 7.5 7.5S217.9 147.1 213.7 147.1z" class="a"/><path d="M345.3 13.3l0.9-6.5h-45v88.6h45.9V89H309V52.8h31.4v-6.5H309v-33H345.3zM262.5 95.4l28.8-88.6h-8l-25.1 80.5 -25-80.5h-8.4l29 88.6H262.5zM169.1 49.4h-14.7V13.2h13.4c16.9 0 23.5 5.9 23.5 17.7C191.3 43.8 183.2 49.4 169.1 49.4M172.1 55.7l22.8 39.7h9.3l-24.3-41.1c12.5-3.2 19.8-10.2 19.8-23.4 0-15.6-10.2-24-31.5-24h-21.5v88.6h7.8V55.7H172.1zM125.7 52.1v43.3h7.8V6.9h-7.8v38.7H83.3V6.9h-7.8v88.6h7.8V52.1H125.7zM66.7 13.7l0.9-6.9H6.9v6.9h26.2v81.7h7.6V13.7H66.7z" class="a"/></svg>