<svg xmlns="http://www.w3.org/2000/svg" width="432" height="200" viewBox="0 0 432 200.3"><style>.a{fill:#FFF;}</style><path d="M40.7 41.2v104.9H35V41.2H1.6v-5.3h73.5l-1 5.3H40.7z" class="a"/><path d="M93.5 90.5v55.6h-5.7V35.9h5.7v49.5h57.4V35.9h5.7v110.2h-5.7V90.5H93.5z" class="a"/><path d="M182.9 94.7v51.4h-5.7V35.9h25c25.9 0 37.3 10.3 37.3 29.1 0 17.1-10 25.4-25 28.8l30.7 52.4h-7.1l-29.6-51.4H182.9zM233.6 64.9c0-15.5-8.6-24.1-31.8-24.1h-18.9v48.6h20.5C222.5 89.5 233.6 81.9 233.6 64.9z" class="a"/><path d="M261.1 172.5V35.9h5.7v136.6H261.1z" class="a"/><path d="M318 146.1L281.8 35.9h6l33.8 104.7 33.6-104.7h6l-36.2 110.2H318z" class="a"/><path d="M381.8 41v44.6h40.6v5h-40.6v50.3h48.6v5.2h-54.3V35.9h53.3l-0.8 5.2H381.8z" class="a"/><path d="M263.9 198.6c-7.9 0-14.4-6.4-14.4-14.4 0-7.9 6.5-14.4 14.4-14.4s14.4 6.4 14.4 14.4C278.3 192.1 271.8 198.6 263.9 198.6zM263.9 174.4c-5.4 0-9.8 4.4-9.8 9.8 0 5.4 4.4 9.8 9.8 9.8 5.4 0 9.8-4.4 9.8-9.8C273.7 178.8 269.3 174.4 263.9 174.4z" class="a"/><path d="M44.8 159.7c0 4.1-2.9 5.7-6.8 5.7h-2.6v7.1h-1.6v-18.3h4.3C42.3 154.2 44.8 155.9 44.8 159.7zM43.1 159.7c0-3.1-1.9-4.2-5.1-4.2h-2.7v8.6H38C41 164.1 43.1 163.1 43.1 159.7z" class="a"/><path d="M50.6 164.3v8.2H49v-18.3h4.4c4.4 0 6.5 1.7 6.5 5 0 2.7-1.5 4.2-4.1 4.8l5 8.5H59l-4.7-8.2H50.6zM58.3 159.2c0-2.4-1.4-3.7-4.9-3.7h-2.8v7.5h3C56.6 163 58.3 161.9 58.3 159.2z" class="a"/><path d="M78.3 163.4c0 6-2.9 9.4-7.5 9.4 -4.4 0-7.5-3.3-7.5-9.4 0-6 3.1-9.5 7.5-9.5C75.2 153.9 78.3 157.2 78.3 163.4zM65 163.4c0 5.5 2.4 8 5.8 8 3.6 0 5.8-2.6 5.8-8.1 0-5.6-2.3-8.1-5.8-8.1C67.3 155.3 65 157.9 65 163.4z" class="a"/><path d="M82.9 167.5l-1.6 5h-1.6l6.1-18.3h2l6.1 18.3h-1.7l-1.6-5H82.9zM86.8 155.5l-3.4 10.6h6.8L86.8 155.5z" class="a"/><path d="M107.4 155.6l-0.9 1.1c-1.2-1-2.2-1.4-3.7-1.4 -3.2 0-5.8 2.2-5.8 8.1 0 5.6 2.5 8 5.8 8 1.9 0 3-0.7 4-1.6l0.9 1.1c-1.1 1-2.7 1.9-4.9 1.9 -4.2 0-7.4-3.3-7.4-9.5 0-6.3 3.3-9.4 7.4-9.4C104.9 153.9 106.1 154.6 107.4 155.6z" class="a"/><path d="M115.6 155.6v16.9h-1.6v-16.9h-5.4v-1.4h12.6l-0.2 1.4H115.6z" class="a"/><path d="M124.4 172.5v-18.3h1.6v18.3H124.4z" class="a"/><path d="M135.4 172.5l-6-18.3h1.7l5.2 16.7 5.2-16.7h1.7l-6 18.3H135.4z" class="a"/><path d="M148.2 155.6v6.8h6.5v1.3h-6.5v7.5h7.9v1.3h-9.5v-18.3h9.3l-0.2 1.3H148.2z" class="a"/><path d="M163.2 164.4v8.1h-3.9V154h3.9v7.3h6.1V154h3.9v18.5h-3.9v-8.1H163.2z" class="a"/><path d="M181.1 156.9v4.8h5.8v2.8h-5.8v5.1h7.2v2.9h-11.1V154h11l-0.4 2.9H181.1z" class="a"/><path d="M194.2 168.4l-1 4.1h-4.1l5.7-18.5h4.8l5.7 18.5h-4.2l-1-4.1H194.2zM197.1 157l-2.1 8.5h4.3L197.1 157z" class="a"/><path d="M218.2 169.4l-0.4 3.2h-10.8V154h3.9v15.3H218.2z" class="a"/><path d="M225.3 157.1v15.4h-3.9v-15.4h-4.9V154h14l-0.4 3.1H225.3z" class="a"/><path d="M236.3 164.4v8.1h-3.9V154h3.9v7.3h6.1V154h3.9v18.5h-3.9v-8.1H236.3z" class="a"/><path d="M5.8 11.3v6.8h-2V2.2h4.1c3.9 0 6 1.5 6 4.5 0 2.3-1.2 3.6-3.5 4.2l4.3 7.2h-2.4l-3.9-6.8H5.8zM11.8 6.7c0-2-1.2-2.9-3.9-2.9H5.8v5.9h2.3C10.4 9.7 11.8 8.9 11.8 6.7z" class="a"/><path d="M22.7 3.8v5.4h5.4v1.6h-5.4v5.7h6.7v1.6h-8.6V2.2h8.5L29 3.8H22.7z" class="a"/><path d="M44.6 3.8L43.5 5c-1.2-1-2.3-1.4-3.6-1.4 -1.7 0-3 0.8-3 2.4 0 1.4 0.7 2.1 3.5 3 2.6 0.8 4.7 1.8 4.7 4.8 0 2.8-2.1 4.7-5.6 4.7 -2.3 0-4-0.8-5.3-2l1.2-1.3c1.1 1 2.4 1.7 4.1 1.7 1.9 0 3.5-1 3.5-3 0-1.6-0.8-2.4-3.5-3.2 -3.1-0.9-4.7-2.1-4.7-4.5 0-2.4 2-4.1 4.9-4.1C42 1.9 43.3 2.6 44.6 3.8z" class="a"/><path d="M55.8 3.9v14.2h-2V3.9h-4.6V2.2h11.2l-0.2 1.7H55.8z" class="a"/><path d="M77.7 10.2c0 5.2-2.7 8.2-6.7 8.2 -3.9 0-6.7-2.9-6.7-8.2 0-5.2 2.7-8.3 6.7-8.3C75 1.9 77.7 4.8 77.7 10.2zM66.5 10.2c0 4.6 1.8 6.5 4.5 6.5 2.8 0 4.5-1.9 4.5-6.5 0-4.6-1.7-6.6-4.5-6.6C68.3 3.6 66.5 5.5 66.5 10.2z" class="a"/><path d="M86.4 11.3v6.8h-2V2.2h4.1c3.9 0 6 1.5 6 4.5 0 2.3-1.2 3.6-3.5 4.2l4.3 7.2h-2.4L89 11.3H86.4zM92.3 6.7c0-2-1.2-2.9-3.9-2.9h-2.1v5.9h2.3C91 9.7 92.3 8.9 92.3 6.7z" class="a"/><path d="M103.3 3.8v5.4h5.4v1.6h-5.4v5.7h6.7v1.6h-8.6V2.2h8.5l-0.2 1.6H103.3z" class="a"/><path d="M143.1 9.6v1.8h-3.4v3.4h-1.9v-3.4h-3.3V9.6h3.3V6.1h1.9v3.5H143.1z" class="a"/><path d="M171.3 11.7v6.4h-3v-16h4.8c4.2 0 6.3 1.5 6.3 4.7 0 2.2-1.1 3.5-3.2 4.3l4.2 7h-3.5l-3.5-6.4H171.3zM173.2 9.5c1.9 0 3-0.8 3-2.7 0-1.7-1-2.5-3.2-2.5h-1.6v5.1H173.2z" class="a"/><path d="M188.4 4.4v4.5h5.1v2.3h-5.1v4.7h6.3v2.3h-9.4v-16h9.3l-0.3 2.3H188.4z" class="a"/><path d="M203.5 18.1l-4.9-16h3.3l3.5 13.3 3.4-13.3h3.1l-4.7 16H203.5z" class="a"/><path d="M216.7 18.1v-16h3.1v16H216.7z" class="a"/><path d="M229.4 18.1l-4.9-16h3.3l3.5 13.3 3.4-13.3h3.1l-4.7 16H229.4z" class="a"/><path d="M245.5 4.4v4.5h5.1v2.3h-5.1v4.7h6.3v2.3h-9.4v-16h9.3l-0.3 2.3H245.5z" class="a"/><path d="M284.8 9.6v1.8h-3.4v3.4h-1.9v-3.4h-3.3V9.6h3.3V6.1h1.9v3.5H284.8z" class="a"/><path d="M323.2 10.1c0 5.2-2.7 8.4-7.1 8.4s-7.1-3-7.1-8.4c0-5.2 2.7-8.4 7.1-8.4S323.2 4.8 323.2 10.1zM312.6 10.1c0 4.2 1.3 5.8 3.5 5.8 2.3 0 3.5-1.6 3.5-5.8 0-4.2-1.2-5.8-3.5-5.8C313.9 4.3 312.6 5.9 312.6 10.1z" class="a"/><path d="M340.3 7.3c0 3.7-2.6 5.4-6.3 5.4h-1.8v5.4h-3.4v-16h4.9C337.8 2.1 340.3 3.8 340.3 7.3zM336.8 7.3c0-1.9-1.1-2.7-3.1-2.7h-1.5v5.6h1.5C335.6 10.2 336.8 9.4 336.8 7.3z" class="a"/><path d="M351.5 4.8v13.3h-3.4V4.8h-4.2V2.1h12.1l-0.4 2.7H351.5z" class="a"/><path d="M360.6 18.1v-16h3.4v16H360.6z" class="a"/><path d="M382.6 18.1l-0.3-6.5c-0.1-2.3-0.2-4.7-0.1-6.5l-2.7 11.3h-3.2l-2.9-11.3c0.1 2.2 0.1 4.4 0 6.6l-0.3 6.4h-3.3l1.2-16h4.3l2.6 11 2.5-11h4.4l1.2 16H382.6z" class="a"/><path d="M391.7 18.1v-16h3.4v16H391.7z" class="a"/><path d="M404.3 15.4h7.3l-0.4 2.7h-10.9v-2.6l7.3-10.7h-6.6V2.1h10.4v2.6L404.3 15.4z" class="a"/><path d="M420.4 4.6v4.2h5v2.4h-5v4.4h6.2v2.5H417v-16h9.5l-0.4 2.5H420.4z" class="a"/></svg>